<svg preserveAspectRatio="none" overflow="visible" style="display: block;" width="32" height="32" viewBox="0 0 32 32" fill="none" xmlns="http://www.w3.org/2000/svg">
<g id="Frame" clip-path="url(#clip0_0_74)">
<path id="Vector" d="M16 0C24.8368 0 32 7.1632 32 16C32 24.8368 24.8368 32 16 32C7.1632 32 0 24.8368 0 16C0 7.1632 7.1632 0 16 0ZM16 3.2C12.6052 3.2 9.3495 4.54857 6.94903 6.94903C4.54857 9.3495 3.2 12.6052 3.2 16C3.2 19.3948 4.54857 22.6505 6.94903 25.051C9.3495 27.4514 12.6052 28.8 16 28.8C19.3948 28.8 22.6505 27.4514 25.051 25.051C27.4514 22.6505 28.8 19.3948 28.8 16C28.8 12.6052 27.4514 9.3495 25.051 6.94903C22.6505 4.54857 19.3948 3.2 16 3.2ZM10.2272 9.9344C10.5331 9.69793 10.9147 9.58112 11.3006 9.60586C11.6864 9.63061 12.05 9.7952 12.3232 10.0688L16 13.7504L19.6768 10.0688C19.95 9.7952 20.3136 9.63061 20.6994 9.60586C21.0853 9.58112 21.4669 9.69793 21.7728 9.9344L21.9232 10.0672C22.0711 10.2148 22.1884 10.3901 22.2685 10.583C22.3486 10.7759 22.3899 10.9828 22.39 11.1917C22.3902 11.4006 22.3492 11.6075 22.2693 11.8005C22.1895 11.9936 22.0724 12.169 21.9248 12.3168L18.2464 16L21.9264 19.6848C22.2 19.9592 22.364 20.324 22.3879 20.7107C22.4118 21.0975 22.2938 21.4796 22.056 21.7856L21.9248 21.9344L21.7728 22.0672C21.4671 22.3039 21.0856 22.421 20.6997 22.3965C20.3139 22.3721 19.9502 22.2078 19.6768 21.9344L16 18.2512L12.3232 21.936C12.0498 22.2094 11.6861 22.3737 11.3003 22.3981C10.9144 22.4226 10.5329 22.3055 10.2272 22.0688L10.0752 21.936C9.92745 21.7883 9.81025 21.613 9.73028 21.42C9.65032 21.227 9.60916 21.0201 9.60916 20.8112C9.60916 20.6023 9.65032 20.3954 9.73028 20.2024C9.81025 20.0094 9.92745 19.8341 10.0752 19.6864L13.752 16.0016L10.0752 12.3168C9.80183 12.0427 9.63772 11.6783 9.61357 11.292C9.58942 10.9056 9.70689 10.5236 9.944 10.2176L10.0752 10.0672H10.0768L10.2272 9.9344Z" fill="#155DFC"/>
</g>
<defs>
<clipPath id="clip0_0_74">
<rect width="32" height="32" fill="white"/>
</clipPath>
</defs>
</svg>
